<svg width="400" height="200" xmlns="http://www.w3.org/2000/svg">
  <rect width="400" height="200" fill="#f3e5f5"/>
  <rect x="20" y="20" width="360" height="160" fill="#ffffff" rx="8"/>
  <rect x="50" y="40" width="300" height="30" fill="#7b1fa2" rx="4"/>
  <rect x="60" y="50" width="20" height="10" fill="#ffffff" rx="2"/>
  <rect x="90" y="50" width="20" height="10" fill="#ffffff" rx="2"/>
  <rect x="120" y="50" width="20" height="10" fill="#ffffff" rx="2"/>
  <rect x="150" y="50" width="20" height="10" fill="#ffffff" rx="2"/>
  <polygon points="60,90 100,90 80,110" fill="#ab47bc"/>
  <polygon points="140,90 180,90 160,110" fill="#ab47bc"/>
  <polygon points="220,90 260,90 240,110" fill="#ab47bc"/>
  <polygon points="300,90 340,90 320,110" fill="#ab47bc"/>
  <rect x="30" y="130" width="340" height="8" fill="#e1bee7" rx="4"/>
  <rect x="30" y="145" width="280" height="8" fill="#e1bee7" rx="4"/>
  <rect x="30" y="160" width="200" height="8" fill="#e1bee7" rx="4"/>
  <text x="200" y="190" font-family="Arial, sans-serif" font-size="12" fill="#666" text-anchor="middle">Blockchain Voting System</text>
</svg>