<svg width="400" height="200" xmlns="http://www.w3.org/2000/svg">
  <rect width="400" height="200" fill="#e0f2f1"/>
  <rect x="20" y="20" width="360" height="160" fill="#ffffff" rx="8"/>
  <rect x="30" y="30" width="340" height="40" fill="#00695c" rx="4"/>
  <circle cx="80" cy="50" r="8" fill="#26a69a"/>
  <rect x="100" y="45" width="60" height="4" fill="#26a69a" rx="2"/>
  <rect x="100" y="52" width="40" height="4" fill="#80cbc4" rx="2"/>
  <path d="M50 90 L100 100 L150 85 L200 95 L250 80 L300 90 L350 75" stroke="#00695c" stroke-width="3" fill="none"/>
  <rect x="30" y="120" width="60" height="40" fill="#b2dfdb" rx="4"/>
  <rect x="110" y="120" width="60" height="40" fill="#b2dfdb" rx="4"/>
  <rect x="190" y="120" width="60" height="40" fill="#b2dfdb" rx="4"/>
  <rect x="270" y="120" width="60" height="40" fill="#b2dfdb" rx="4"/>
  <text x="200" y="190" font-family="Arial, sans-serif" font-size="12" fill="#666" text-anchor="middle">Social Media Analytics</text>
</svg>